HIERARCHY
ROOT pelvis
{
  OFFSET 0 100 0
  CHANNELS 6 Xposition Yposition Zposition Zrotation Xrotation Yrotation
  JOINT pelvis_right_femur
  {
    OFFSET -10.78128 -3.44521 -0.5502486
    CHANNELS 3 Zrotation Xrotation Yrotation
    JOINT right_femur_tibia
    {
      OFFSET -0.8047443 -44.0398 -0.1307829
      CHANNELS 3 Zrotation Xrotation Yrotation
      JOINT right_tibia_foot
      {
        OFFSET 3.006224 -47.83518 -5
        CHANNELS 3 Zrotation Xrotation Yrotation
        End Site
        {
          OFFSET 0 -5 15
        }
      }
    }
  }
  JOINT pelvis_left_femur
  {
    OFFSET 10.78128 -3.44521 -0.5502486
    CHANNELS 3 Zrotation Xrotation Yrotation
    JOINT left_femur_tibia
    {
      OFFSET 0.8047443 -44.0398 -0.1307829
      CHANNELS 3 Zrotation Xrotation Yrotation
      JOINT left_tibia_foot
      {
        OFFSET -4.370144 -48.10324 -4.275266
        CHANNELS 3 Zrotation Xrotation Yrotation
        End Site
        {
          OFFSET 0 -5 15
        }
      }
    }
  }
  JOINT pelvis_spine1
  {
    OFFSET 0 6.468898 -3.129235
    CHANNELS 3 Zrotation Xrotation Yrotation
    JOINT spine1
    {
      OFFSET 0 23.15396 4.99043
      CHANNELS 3 Zrotation Xrotation Yrotation
      JOINT spine2
      {
        OFFSET 0 20.79997 -5.064912
        CHANNELS 3 Zrotation Xrotation Yrotation
        JOINT neck
        {
          OFFSET 0 14.38658 9.616178
          CHANNELS 3 Zrotation Xrotation Yrotation
          End Site
          {
            OFFSET 0 20 0
          }
        }
      }
      JOINT right_manubrium
      {
        OFFSET -5.722621 16.35077 3.967754
        CHANNELS 3 Zrotation Xrotation Yrotation
        JOINT right_clavicle
        {
          OFFSET -13.16364 1.694482 -4.693211
          CHANNELS 3 Zrotation Xrotation Yrotation
          JOINT right_humerus
          {
            OFFSET -28.5034 -0.3100689 -2.792744
            CHANNELS 3 Zrotation Xrotation Yrotation
            JOINT right_radius
            {
              OFFSET -25.15693 0.02248979 -1.271978
              CHANNELS 3 Zrotation Xrotation Yrotation
              End Site
              {
                OFFSET -15 0 0
              }
            }
          }
        }
      }
      JOINT left_manubrium
      {
        OFFSET 5.722621 16.35077 3.967754
        CHANNELS 3 Zrotation Xrotation Yrotation
        JOINT left_clavicle
        {
          OFFSET 13.16364 1.694482 -4.693211
          CHANNELS 3 Zrotation Xrotation Yrotation
          JOINT left_humerus
          {
            OFFSET 29.39168 -1.063119 -2.237045
            CHANNELS 3 Zrotation Xrotation Yrotation
            JOINT left_radius
            {
              OFFSET 24.59957 -0.9528479 0.9047498
              CHANNELS 3 Zrotation Xrotation Yrotation
              End Site
              {
                OFFSET 15 -0 -0
              }
            }
          }
        }
      }
    }
  }
}
MOTION
Frames: 13
Frame Time: 0.0416666666667
-819.9381 102.434 2746.71 -1.367745 -1.673567 -48.55703 2.648788 -28.59868 -4.803249 -0 2.033973 -0 -8.192722 7.452467 -0.8015828 -5.421234 16.08946 -8.041204 -0 17.60904 -0 -1.142591 -20.81888 12.60725 0.9301192 -1.455399 4.469092 -0.04585113 15.33471 -6.94006 1.175665 22.77696 5.209916 3.8062 -19.88782 5.312274 -3.040275 -22.19221 12.48213 96.23504 19.33701 -20.80946 -0 0 11.07305 -22.7888 9.827971 7.790875 4.756484 -27.12394 -10.17388 -87.82612 10.9788 18.12197 0 0 -19.5312 14.46564 16.83396 -6.413423
-825.251 101.7188 2751.103 -1.620109 -1.361854 -48.35819 4.079341 -26.89108 -3.748423 -0 2.310809 -0 -8.255627 8.171817 -1.217405 -4.925833 16.37441 -7.254977 -0 24.72271 -0 -2.348454 -18.00623 11.43238 1.036136 -1.5859 4.55547 -0.003233876 15.61758 -7.193136 1.053882 22.57367 5.248068 3.944592 -19.84067 5.102391 -2.994653 -22.31428 12.66669 96.53751 19.26287 -21.54702 -0 0 11.11369 -22.89514 9.977896 7.482139 4.806406 -27.71386 -10.49714 -87.52818 10.27532 17.95345 0 0 -20.65033 14.93716 16.77445 -7.124958
-830.833 101.6732 2755.615 -2.653174 -1.597804 -48.43849 5.5908 -23.28449 -2.415546 -0 4.856071 -0 -8.749118 7.776377 -1.834704 -4.227785 15.41823 -6.628177 -0 34.19194 -0 -3.130518 -14.09125 11.0315 1.149727 -1.638862 4.702618 0.004855845 15.86346 -7.285271 1.016959 22.43642 5.146194 3.912904 -19.78952 4.964242 -3.029256 -22.66363 12.78079 96.63765 19.14929 -21.61888 -0 0 11.54224 -22.94738 10.16116 7.457566 4.639514 -27.85342 -10.6794 -87.65202 9.929 18.59681 0 0 -20.50548 14.9517 16.78783 -7.137989
-836.4336 102.3806 2760.068 -3.964904 -2.191197 -48.90467 6.754176 -18.47461 -1.090026 -0 8.142745 -0 -9.324977 6.187125 -2.450381 -3.529802 12.67502 -6.171914 -0 44.6058 -0 -3.450332 -10.08011 11.39396 1.276966 -1.638634 4.908695 -0.007685301 16.06659 -7.231315 1.069959 22.35019 4.892489 3.671753 -19.76221 4.918372 -3.184715 -23.2648 12.81508 96.57671 18.9487 -21.05434 -0 0 12.34216 -22.93544 10.40675 7.748978 4.242633 -27.55222 -10.71052 -88.15965 9.973974 20.04213 0 0 -19.26674 14.45207 16.87281 -6.356488
-841.8158 103.6734 2764.298 -5.02847 -2.941625 -49.70893 7.239951 -13.14638 0.007834268 -0 10.64139 -0 -9.649533 3.661835 -2.849693 -2.980844 8.02777 -5.866683 -0 53.72892 -0 -3.52545 -6.973088 12.25948 1.408674 -1.635116 5.185273 -0.02533754 16.20806 -7.061906 1.196461 22.25679 4.491682 3.205587 -19.77465 4.958447 -3.471774 -24.14989 12.7626 96.35095 18.6606 -19.90895 -0 0 13.58079 -22.86251 10.77372 8.386382 3.657412 -26.85673 -10.56384 -88.97889 10.35182 22.22665 0 0 -17.32429 13.42297 16.96131 -4.769377
-846.8468 105.1661 2768.211 -5.636393 -3.759277 -50.68452 7.039378 -7.797447 0.7733256 -0 11.57404 -0 -9.670573 0.6063631 -2.938905 -2.550079 1.999826 -5.650442 -0 59.2719 -0 -3.431383 -5.302222 13.40524 1.522101 -1.682844 5.549036 -0.03802103 16.25775 -6.81506 1.356977 22.07372 3.97031 2.549937 -19.80394 5.037114 -3.845934 -25.32545 12.62245 95.88985 18.34116 -18.24908 -0 0 15.39229 -22.75016 11.32797 9.366168 2.983421 -25.84521 -10.21323 -90.02024 10.9013 25.02158 0 0 -15.11851 11.93717 16.94078 -2.522909
-851.5183 106.4238 2771.812 -5.951955 -4.571443 -51.66346 6.49604 -2.732362 1.205179 -0 11.13949 -0 -9.588811 -2.605544 -2.801056 -2.019667 -4.445598 -5.379951 -0 59.80008 -0 -3.038553 -4.904438 14.71227 1.595173 -1.814991 6.001233 -0.04358802 16.17176 -6.523169 1.49895 21.73762 3.384114 1.799273 -19.78523 5.084596 -4.217533 -26.72734 12.39972 95.08681 18.06636 -16.16035 -0 0 17.8663 -22.63759 12.09754 10.62062 2.352384 -24.62097 -9.660607 -91.17677 11.40818 28.20195 0 0 -12.98855 10.1765 16.72052 0.06110974
-855.9009 107.1438 2775.198 -6.201994 -5.186489 -52.55048 6.035477 1.895237 1.372026 -0 10.08734 -0 -9.549838 -5.7663 -2.582847 -1.142685 -10.44041 -4.879437 -0 55.30504 -0 -2.283084 -5.106619 16.03846 1.621812 -2.02721 6.515594 -0.04272406 15.90003 -6.20306 1.579321 21.24432 2.812687 1.073094 -19.65416 5.057416 -4.498686 -28.21685 12.10371 93.87395 17.88341 -13.75962 -0 0 20.92388 -22.56288 13.0384 12.02327 1.871485 -23.29162 -8.946299 -92.33239 11.71168 31.4737 0 0 -11.1053 8.379479 16.29031 2.595617
-860.0976 107.2307 2778.524 -6.380505 -5.350438 -53.3169 5.836247 6.025474 1.384188 -0 9.102959 -0 -9.440207 -8.795009 -2.324658 0.1438787 -15.54752 -4.090172 -0 47.01885 -0 -1.365369 -5.229979 17.14917 1.611904 -2.284987 7.047365 -0.03221577 15.4204 -5.863843 1.583035 20.6517 2.33605 0.4643796 -19.40383 4.967437 -4.648346 -29.62673 11.75297 92.29731 17.79009 -11.21578 -0 0 24.27797 -22.54491 14.03814 13.42735 1.578503 -21.95941 -8.138509 -93.38096 11.78149 34.54168 0 0 -9.533154 6.749517 15.70767 4.793265
-864.2205 106.7597 2781.945 -6.329387 -4.957558 -53.97163 5.780026 9.64635 1.357798 -0 8.581114 -0 -9.032767 -11.57941 -1.964489 1.629479 -19.59047 -3.171487 -0 36.79478 -0 -0.6437133 -4.976554 17.85217 1.575725 -2.537221 7.542586 -0.01131018 14.77778 -5.516965 1.528707 20.06214 2.009489 0.01769979 -19.09954 4.867824 -4.679575 -30.79955 11.38301 90.54524 17.7563 -8.759938 -0 0 27.47884 -22.58582 14.94134 14.69911 1.44775 -20.72255 -7.320628 -94.24808 11.7154 37.14017 0 0 -8.296671 5.408402 15.05703 6.531564
-868.3759 105.8936 2785.575 -6.013906 -4.193176 -54.55421 5.625574 12.7975 1.344689 -0 8.750459 -0 -8.287361 -13.84968 -1.475985 2.884897 -22.38674 -2.481332 -0 26.65136 -0 -0.4117695 -4.472889 18.17423 1.511843 -2.724116 7.93997 0.003515531 14.08531 -5.170646 1.462347 19.60007 1.849349 -0.2589518 -18.83877 4.818906 -4.634858 -31.60604 11.0419 88.89678 17.76232 -6.636102 -0 0 30.0406 -22.68262 15.59044 15.73542 1.431199 -19.65843 -6.577902 -94.9139 11.67247 39.04924 0 0 -7.347411 4.40555 14.44315 7.800135
-872.6571 104.8181 2789.469 -5.622959 -3.469878 -55.12405 5.178355 15.57443 1.285611 -0 9.817212 -0 -7.492789 -15.13013 -0.9339247 3.429145 -23.7641 -2.437432 -0 18.41578 -0 -0.7454483 -4.078322 18.36626 1.414459 -2.797424 8.187898 -0.01573865 13.47197 -4.828575 1.432675 19.36302 1.832753 -0.3794342 -18.6901 4.854891 -4.556372 -31.98208 10.77061 87.59927 17.81033 -5.0115 -0 0 31.64275 -22.82584 15.89127 16.47863 1.490118 -18.80416 -5.976922 -95.40861 11.77291 40.15865 0 0 -6.554478 3.739346 13.9778 8.630646
-877.1401 103.7234 2793.638 -5.404134 -3.182354 -55.71827 4.355437 18.03671 1.083393 -0 12.05175 -0 -7.084471 -14.86106 -0.4344059 2.968832 -23.70771 -3.293907 -0 13.24021 -0 -1.469876 -4.120271 18.70563 1.287607 -2.747378 8.272861 -0.08185905 13.01482 -4.501357 1.460426 19.37022 1.914274 -0.3742618 -18.66166 4.969721 -4.47001 -31.96203 10.5847 86.7588 17.9056 -3.926319 -0 0 32.26291 -22.989 15.85423 16.92515 1.597559 -18.16151 -5.545602 -95.77361 12.03929 40.52408 0 0 -5.805491 3.369966 13.7222 9.078364
